<?xml version="1.0" encoding="UTF-8"?>
<svg version="1.1" xmlns="http://www.w3.org/2000/svg" width="695" height="695">
<path d="M0 0 C0.99676758 0.39687012 1.99353516 0.79374023 3.02050781 1.20263672 C9.87352397 3.94074227 16.69803712 6.74519006 23.51757812 9.56542969 C42.91944166 17.59148885 42.91944166 17.59148885 62.64453125 24.76953125 C66.71784273 26.26323686 70.70211161 27.93599218 74.7019043 29.61547852 C80.28905487 31.96093198 85.89372172 34.26322432 91.5 36.5625 C93.19962891 37.26536133 93.19962891 37.26536133 94.93359375 37.98242188 C126.16322377 50.77118789 153.16137386 50.38444215 184 37.5625 C184.97066406 37.14742187 185.94132813 36.73234375 186.94140625 36.3046875 C195.53287527 32.63987185 204.24331324 29.27587411 212.98193359 25.98120117 C220.21821383 23.25275718 227.34509464 20.47447402 234.34765625 17.18359375 C238.06364661 15.52535358 241.86553353 14.13028707 245.68383789 12.7265625 C250.64231357 10.89763054 255.57571393 9.00877109 260.5 7.08984375 C261.17266907 6.82797775 261.84533813 6.56611176 262.53839111 6.29631042 C265.27928778 5.22887304 268.02002005 4.16105854 270.75866699 3.08786011 C295.8377187 -6.73749441 295.8377187 -6.73749441 305.125 -6.5 C306.27983887 -6.48404785 306.27983887 -6.48404785 307.45800781 -6.46777344 C316.27825787 -6.1738891 322.93549621 -3.25730515 330 2 C330.80566406 2.598125 331.61132812 3.19625 332.44140625 3.8125 C340.86274658 11.01242456 344.29743978 21.30152323 345.27734375 32.0390625 C345.63116041 42.99322615 342.93787629 53.33189539 336 62 C335.31808594 62.33902344 334.63617187 62.67804688 333.93359375 63.02734375 C331.83652767 63.82520767 331.83652767 63.82520767 331.1640625 65.8984375 C329.40352557 69.07685651 326.54247883 70.12621886 323.375 71.625 C322.68494873 71.96055908 321.99489746 72.29611816 321.28393555 72.6418457 C307.84248736 79.0553909 293.93838354 84.6034325 280.00292969 89.84594727 C277.21385512 90.91781357 274.45997668 92.04600104 271.70703125 93.20703125 C267.45915941 94.9861915 263.19983967 96.73131674 258.92483521 98.44386292 C256.00487932 99.61433081 253.08871521 100.79410426 250.17260742 101.97412109 C248.6822326 102.57482924 247.19036081 103.1718366 245.69702148 103.76513672 C230.30575645 109.88794538 214.04018188 117.53811176 206 133 C204.86507401 136.14255681 203.8176711 139.29575059 202.83203125 142.48828125 C202 145 202 145 201 146 C200.7334784 147.65835665 200.53753171 149.32824523 200.375 151 C200.27960938 151.9075 200.18421875 152.815 200.0859375 153.75 C199.88060411 161.51533544 201.41494807 167.9968588 204.25 175.1875 C204.88871707 176.85910914 205.52673296 178.53098635 206.1640625 180.203125 C206.47762695 181.01716797 206.79119141 181.83121094 207.11425781 182.66992188 C208.34444682 185.90611921 209.48451569 189.16859593 210.625 192.4375 C212.43399804 197.53079545 214.43510492 202.50048318 216.55078125 207.47265625 C218.80779265 212.96613683 220.88583057 218.52710542 222.9699707 224.08813477 C225.07363322 229.67189101 227.31534769 235.18233424 229.62548828 240.68359375 C232.02320457 246.46877636 234.3102254 252.29761559 236.60180664 258.12548828 C237.43125809 260.23413173 238.26335536 262.34171716 239.09570312 264.44921875 C242.83250602 273.92902185 246.4409929 283.45222373 250 293 C255.08725684 306.63933985 255.08725684 306.63933985 260.5625 320.125 C263.03591903 325.93795112 265.19185051 331.85727707 267.32641602 337.80126953 C269.24758601 343.10865 271.3622208 348.31141435 273.54980469 353.51416016 C278.96944236 366.5413633 284.08358277 379.69847556 289.17156982 392.85803223 C289.903715 394.75104797 290.63933892 396.64271748 291.37548828 398.53417969 C297.386956 414.19183834 300.11760848 427.77590255 293.55078125 443.90625 C287.28555957 456.40513052 277.23977076 463.76608023 264.25 468.3125 C252.48378782 470.75097053 240.33023359 469.33235601 229.953125 463.19921875 C223.39532089 458.63534157 218.41121417 453.61682126 214 447 C214 446.01 214 445.02 214 444 C213.34 444 212.68 444 212 444 C207.20980254 432.27810504 202.87151132 420.38252982 198.5 408.5 C193.97336372 396.19734199 189.38046882 383.92678071 184.60766602 371.71728516 C182.67501024 366.76435491 180.79045449 361.79574151 178.9375 356.8125 C176.83365622 351.1600624 174.63522501 345.5533022 172.37719727 339.96020508 C170.31421018 334.8299596 168.33587698 329.67003651 166.375 324.5 C165.70063414 322.72782146 165.02614873 320.95568841 164.3515625 319.18359375 C163.0759185 315.83208834 161.80279268 312.47965993 160.53417969 309.12548828 C159.21227225 305.63226478 157.88210198 302.1422649 156.54766846 298.65380859 C156.02019168 297.27088226 155.49536503 295.88694191 154.97332764 294.50195312 C154.23396261 292.54154162 153.48518365 290.58495871 152.734375 288.62890625 C152.30350586 287.49525635 151.87263672 286.36160645 151.42871094 285.19360352 C149.53201946 280.95392114 147.29089499 277.29089499 144 274 C140.18849728 273.06510311 137.89812823 272.6121719 134.25 274.1875 C130.73505682 277.01898201 128.79580561 280.03989009 127.23828125 284.24609375 C126.92842285 285.07197998 126.61856445 285.89786621 126.29931641 286.7487793 C125.97366699 287.63605713 125.64801758 288.52333496 125.3125 289.4375 C124.59780707 291.34901473 123.88295918 293.26047153 123.16796875 295.171875 C122.80622559 296.14576172 122.44448242 297.11964844 122.07177734 298.12304688 C120.44612173 302.48676571 118.78592765 306.83711168 117.125 311.1875 C116.79838379 312.04529053 116.47176758 312.90308105 116.13525391 313.78686523 C113.50273291 320.69770814 110.84628036 327.59922573 108.1875 334.5 C100.7358333 353.85013316 93.39684186 373.24243963 86.13696289 392.6652832 C83.65560103 399.28989805 81.11682597 405.8896723 78.5246582 412.47167969 C76.70877039 417.10390672 74.99958769 421.76565895 73.32910156 426.45214844 C67.72815827 442.06485454 60.60610609 457.1847356 45 465 C32.72981802 470.17319925 20.63167248 470.7205154 8.03515625 466.3125 C-1.69104922 462.10657331 -7.36019328 455.83092137 -13 447 C-13.79083984 445.84371094 -13.79083984 445.84371094 -14.59765625 444.6640625 C-19.80478875 434.7719612 -19.75328531 420.89223792 -16.8671875 410.2890625 C-15.45867907 405.77536738 -13.76703592 401.38360834 -12 397 C-11.52046875 395.77152344 -11.0409375 394.54304688 -10.546875 393.27734375 C-9.58649589 390.85265033 -8.6121598 388.43344544 -7.625 386.01953125 C-5.71442663 381.33413382 -3.91992774 376.60566261 -2.125 371.875 C-1.79032715 370.99376465 -1.4556543 370.1125293 -1.11083984 369.20458984 C-0.07308278 366.47003323 0.96346037 363.73501829 2 361 C3.41515216 357.2702564 4.83223201 353.5412499 6.25 349.8125 C6.56694824 348.97638184 6.88389648 348.14026367 7.21044922 347.27880859 C8.73211877 343.27613872 10.27801361 339.28575965 11.875 335.3125 C14.56103294 328.62797029 17.15190061 321.90653971 19.75 315.1875 C20.28685828 313.80085994 20.8237236 312.4142226 21.3605957 311.02758789 C24.65337296 302.51694192 27.90242813 293.99076901 31.12524414 285.45336914 C33.53021797 279.1280186 36.0945639 272.87528449 38.6875 266.625 C41.74413268 259.2552405 44.46468533 251.87908197 46.90234375 244.28515625 C48.26579595 240.20450393 49.89821688 236.28339663 51.5859375 232.328125 C57.19549593 219.12551786 62.30715156 205.71443556 67.41970825 192.31344604 C68.05180627 190.65861857 68.68595136 189.00457144 69.32223511 187.35134888 C70.228928 184.99308999 71.1271616 182.63176584 72.0234375 180.26953125 C72.29397446 179.57007385 72.56451141 178.87061646 72.84324646 178.14996338 C77.73945704 165.14543596 79.75650863 150.06533419 74 137 C68.25777506 124.83800146 60.86740976 115.83009264 48.5 110.25 C47.77586914 109.91637451 47.05173828 109.58274902 46.30566406 109.23901367 C33.3782129 103.36129266 20.14408157 98.14931316 6.87109375 93.109375 C1.87073806 91.17726478 -3.06142545 89.08386942 -8 87 C-13.8904317 84.52442668 -19.78832099 82.07457909 -25.72680664 79.71655273 C-28.82160012 78.48688196 -31.9111572 77.24455058 -35 76 C-36.30517578 75.47599609 -36.30517578 75.47599609 -37.63671875 74.94140625 C-51.44670039 69.13301955 -60.18292902 60.83994405 -66 47 C-69.20529623 37.50137825 -67.52944964 25.92105319 -63.6328125 16.9921875 C-60.66141804 11.54700052 -57.10607955 5.03535985 -51 3 C-51 2.34 -51 1.68 -51 1 C-49.06374902 0.01836578 -47.12595461 -0.96022454 -45.1875 -1.9375 C-44.10855469 -2.48277344 -43.02960938 -3.02804688 -41.91796875 -3.58984375 C-28.36505938 -10.13950946 -13.0789759 -5.26973134 0 0 Z " fill="#000000" transform="translate(207,178)"/>
<path d="M0 0 C1.25520447 -0.00960754 2.51040894 -0.01921509 3.8036499 -0.02911377 C5.17150693 -0.03396292 6.53936608 -0.03824146 7.90722656 -0.04199219 C9.3172404 -0.04774965 10.72725423 -0.0535073 12.13726807 -0.05926514 C15.09281782 -0.06975902 18.0483405 -0.07561185 21.00390625 -0.07910156 C24.77421566 -0.08457518 28.54416192 -0.10858537 32.31435776 -0.13707352 C35.22789523 -0.15578471 38.14134681 -0.16091003 41.05493927 -0.16243744 C42.44389068 -0.1654467 43.83284121 -0.17341629 45.22173309 -0.18662262 C53.68471822 -0.26133306 60.84938039 -0.29841783 68.00488281 4.70410156 C68.5346875 5.24679688 69.06449219 5.78949219 69.61035156 6.34863281 C70.42439453 7.14333984 70.42439453 7.14333984 71.25488281 7.95410156 C75.37536236 13.84795206 76.241611 19.79308931 76.19898987 26.76927185 C76.20578654 27.59871829 76.21258321 28.42816472 76.21958584 29.2827459 C76.23846876 32.04238704 76.23612683 34.80158099 76.23364258 37.5612793 C76.24262551 39.54783698 76.25283499 41.53438944 76.26417542 43.52093506 C76.29062107 48.90315353 76.29770648 54.28522882 76.29962277 59.66750598 C76.30175803 63.03256953 76.30816798 66.3975969 76.31611443 69.76265144 C76.34384709 81.50886464 76.35612219 93.25497585 76.35375977 105.0012207 C76.35195673 115.9406548 76.38363241 126.87964542 76.43099076 137.81896728 C76.47024115 147.22133576 76.48631052 156.62355938 76.48439354 166.02600914 C76.48362945 171.6372689 76.49213523 177.24813411 76.52392769 182.85931206 C76.55301338 188.13646169 76.55318059 193.41284059 76.53137779 198.6900177 C76.52824573 200.62293692 76.53529684 202.5559045 76.55345917 204.48874092 C76.70847129 222.13220113 76.70847129 222.13220113 71.36549282 228.592103 C70.84817121 229.10988284 70.33084959 229.62766268 69.79785156 230.16113281 C69.08600629 230.93149195 69.08600629 230.93149195 68.35978031 231.7174139 C61.4021705 238.40527665 51.3803533 237.46859726 42.42675781 237.46191406 C41.1498558 237.46619919 39.8729538 237.47048431 38.55735779 237.47489929 C35.8651642 237.48062559 33.17335618 237.48209829 30.48120117 237.47680664 C27.05408107 237.47101381 23.62750174 237.48795659 20.20047092 237.51115131 C16.90090466 237.52953787 13.60136599 237.52570127 10.30175781 237.52441406 C9.08275284 237.53362381 7.86374786 237.54283356 6.60780334 237.55232239 C-0.3236775 237.51493269 -5.7622262 236.76333445 -12.20214844 234.16113281 C-12.20214844 233.50113281 -12.20214844 232.84113281 -12.20214844 232.16113281 C-12.75902344 231.95488281 -13.31589844 231.74863281 -13.88964844 231.53613281 C-18.5734072 228.75119517 -20.76066973 225.66942004 -22.25805283 220.55369473 C-23.28725948 216.27487521 -23.48294266 212.24198959 -23.45611572 207.85670471 C-23.4592357 207.0599267 -23.46235569 206.26314868 -23.46557021 205.44222587 C-23.47349764 202.79319401 -23.4672472 200.14439458 -23.4609375 197.49536133 C-23.46364972 195.58762478 -23.46721195 193.67988929 -23.47155762 191.77215576 C-23.480657 186.6048084 -23.47714729 181.43754111 -23.47079945 176.27019238 C-23.46572604 170.85451881 -23.4704347 165.43885196 -23.47357178 160.0231781 C-23.47720782 150.92844414 -23.47242213 141.83374269 -23.46289062 132.73901367 C-23.45201006 122.23599088 -23.45553024 111.73304577 -23.46654344 101.23002487 C-23.47563051 92.20134078 -23.47689454 83.17268003 -23.4716661 74.14399284 C-23.46855379 68.75644435 -23.46811666 63.36893231 -23.47473907 57.98138618 C-23.48053244 52.91456609 -23.47647923 47.84784574 -23.46495056 42.78103638 C-23.46231448 40.92553307 -23.46305103 39.07002131 -23.46747589 37.21452141 C-23.47297454 34.67375054 -23.46604522 32.13329553 -23.45611572 29.59254456 C-23.46057717 28.86548217 -23.46503861 28.13841978 -23.46963525 27.3893252 C-23.40036453 18.19508442 -21.64472118 10.92185729 -15.20214844 4.16113281 C-10.26818546 0.51939823 -6.03073466 0.03730079 0 0 Z " fill="#000000" transform="translate(42.2021484375,66.8388671875)"/>
<path d="M0 0 C1.4028684 -0.00015533 2.80573721 -0.00164992 4.20860291 -0.00440979 C7.13446253 -0.00578681 10.0598278 0.00664731 12.9855957 0.02954102 C16.71661989 0.0579506 20.4468258 0.05517209 24.1779108 0.0424509 C27.07005174 0.03546306 29.96200688 0.04331772 32.85412407 0.05570793 C34.22909264 0.0601905 35.60408137 0.06058749 36.97905159 0.05664253 C53.24230506 0.03181066 53.24230506 0.03181066 59.64453125 5.36328125 C60.18335938 6.02585937 60.7221875 6.6884375 61.27734375 7.37109375 C61.83164062 8.02851562 62.3859375 8.6859375 62.95703125 9.36328125 C66.3337199 14.34617855 66.69336877 18.89262558 66.66976929 24.78816223 C66.6743004 25.61983451 66.67883151 26.45150679 66.68349993 27.30838126 C66.69615375 30.09342078 66.69452293 32.878265 66.69287109 35.66333008 C66.69885574 37.66091666 66.70566114 39.65850093 66.71322632 41.65608215 C66.73090036 47.08178238 66.73558231 52.50741953 66.73685789 57.93314576 C66.73875722 62.46340275 66.74611518 66.99364506 66.75320208 71.5238964 C66.76948912 82.21328551 66.77437076 92.90264092 66.77294922 103.59204102 C66.77174781 114.6159665 66.79284877 125.63969619 66.82443655 136.66357213 C66.85059537 146.13039566 66.86131667 155.59715522 66.8600384 165.06401461 C66.85952864 170.71711685 66.86521994 176.37004512 66.8863945 182.02311134 C66.90577001 187.34111847 66.90590588 192.65878556 66.89136124 197.97680473 C66.88927117 199.9262606 66.89398578 201.87573771 66.90608215 203.82515717 C66.92155284 206.4915277 66.9122147 209.15672841 66.89682007 211.82307434 C66.90710719 212.59011446 66.91739432 213.35715459 66.92799318 214.14743835 C66.84509184 220.66823233 64.70176301 225.72326465 60.54296875 230.73828125 C59.9190625 231.27710938 59.29515625 231.8159375 58.65234375 232.37109375 C58.03875 232.92539062 57.42515625 233.4796875 56.79296875 234.05078125 C49.59143964 238.40464689 41.12017785 237.80292348 32.99609375 237.796875 C31.71682007 237.80116013 30.43754639 237.80544525 29.11950684 237.80986023 C26.42321605 237.81728319 23.7270563 237.8170593 21.03076172 237.81176758 C17.59457597 237.80596888 14.15892855 237.82293204 10.72283173 237.84611225 C7.4180642 237.86447568 4.11341187 237.86066281 0.80859375 237.859375 C-0.41557251 237.86858475 -1.63973877 237.87779449 -2.90100098 237.88728333 C-12.20224728 237.83711396 -19.10636078 236.55245383 -26.125 230.109375 C-31.39308785 224.33823367 -31.74653733 217.88876195 -31.73809814 210.47613525 C-31.74106927 209.66165161 -31.74404039 208.84716796 -31.74710155 208.008003 C-31.75578227 205.27518172 -31.75729627 202.54240429 -31.75878906 199.80957031 C-31.76341769 197.8515412 -31.76844241 195.893513 -31.77383423 193.93548584 C-31.78695615 188.61304159 -31.79340281 183.29060995 -31.79784489 177.96815205 C-31.80077601 174.6426635 -31.8048809 171.3171784 -31.80934906 167.99169159 C-31.82302358 157.58634464 -31.8326904 147.18100557 -31.83655095 136.77565026 C-31.84103141 124.76549311 -31.858579 112.75544978 -31.88755155 100.74532723 C-31.90917055 91.46111958 -31.91925535 82.17694395 -31.92059207 72.8927114 C-31.92163996 67.34804901 -31.92754441 61.80349362 -31.94541168 56.25885773 C-31.96189601 51.04187173 -31.96404604 45.82507314 -31.95527267 40.60807037 C-31.95450249 38.69570412 -31.95884253 36.78332778 -31.96873093 34.87098694 C-31.98146151 32.25509798 -31.97556767 29.63987165 -31.96514893 27.02398682 C-31.97320533 26.27182837 -31.98126173 25.51966992 -31.98956227 24.74471879 C-31.92761853 18.06948182 -30.11957262 12.82373055 -26.47265625 7.24609375 C-18.78338952 -0.10885703 -10.18474629 -0.09256044 0 0 Z " fill="#000000" transform="translate(605.59765625,66.50390625)"/>
<path d="M0 0 C1.37905744 1.1409468 2.754504 2.28628336 4.125 3.4375 C5.15625 4.200625 6.1875 4.96375 7.25 5.75 C18.26316492 16.04491504 27.34217945 33.82460046 28.28613281 49.03369141 C28.33200124 52.04340669 28.36026299 55.05246471 28.375 58.0625 C28.4059375 59.60744141 28.4059375 59.60744141 28.4375 61.18359375 C28.53001327 79.57060702 20.45015358 95.35911309 8.640625 109.00390625 C7.125 110.4375 7.125 110.4375 5.125 110.4375 C4.898125 111.02660156 4.67125 111.61570312 4.4375 112.22265625 C1.78071572 116.70597972 -3.47132117 118.87922705 -7.875 121.4375 C-8.69742188 121.91832031 -9.51984375 122.39914063 -10.3671875 122.89453125 C-25.89812057 131.32197198 -46.08088645 131.96610524 -63.0625 127.875 C-80.77461834 122.16842007 -97.09416454 109.48653703 -105.84375 92.796875 C-114.53073416 75.37036444 -116.33557113 55.27457365 -111.0234375 36.4140625 C-110.08525113 33.69103376 -109.03512176 31.07303793 -107.875 28.4375 C-107.51535156 27.59703125 -107.15570313 26.7565625 -106.78515625 25.890625 C-99.00968498 9.03068055 -84.1895264 -4.14884232 -66.875 -10.5625 C-44.75022988 -18.11952025 -18.54468926 -14.19393854 0 0 Z " fill="#000000" transform="translate(388.875,62.5625)"/>
</svg>
